<svg width="256" height="256" viewBox="0 0 256 256" xmlns="http://www.w3.org/2000/svg">
    <defs>
        <linearGradient id="grad1" x1="0%" y1="0%" x2="100%" y2="100%">
            <stop offset="0%" style="stop-color:#00ffff;stop-opacity:1" />
            <stop offset="100%" style="stop-color:#0088ff;stop-opacity:1" />
        </linearGradient>
        <linearGradient id="grad2" x1="0%" y1="0%" x2="100%" y2="100%">
            <stop offset="0%" style="stop-color:#ff00ff;stop-opacity:1" />
            <stop offset="100%" style="stop-color:#00ffff;stop-opacity:1" />
        </linearGradient>
        <filter id="glow">
            <feGaussianBlur stdDeviation="4" result="coloredBlur"/>
            <feMerge>
                <feMergeNode in="coloredBlur"/>
                <feMergeNode in="SourceGraphic"/>
            </feMerge>
        </filter>
    </defs>
    <circle cx="128" cy="128" r="120" fill="#0a0a0f" stroke="url(#grad1)" stroke-width="2" opacity="0.3"/>
    <path d="M128 32 L68 64 L68 140 Q68 180 128 208 Q188 180 188 140 L188 64 Z" fill="none" stroke="url(#grad1)" stroke-width="3" filter="url(#glow)"/>
    <path d="M128 48 L84 72 L84 132 Q84 164 128 188 Q172 164 172 132 L172 72 Z" fill="url(#grad1)" opacity="0.2"/>
    <g transform="translate(128, 110)">
        <rect x="-20" y="0" width="40" height="30" rx="4" fill="url(#grad2)" filter="url(#glow)"/>
        <path d="M-14 0 L-14 -10 Q-14 -24 0 -24 Q14 -24 14 -10 L14 0" fill="none" stroke="url(#grad2)" stroke-width="4" stroke-linecap="round"/>
        <circle cx="0" cy="15" r="4" fill="#0a0a0f"/>
    </g>
    <g opacity="0.6">
        <circle cx="60" cy="60" r="2" fill="#00ffff">
            <animate attributeName="opacity" values="0;1;0" dur="2s" repeatCount="indefinite"/>
        </circle>
        <circle cx="196" cy="60" r="2" fill="#00ffff">
            <animate attributeName="opacity" values="0;1;0" dur="2s" begin="0.5s" repeatCount="indefinite"/>
        </circle>
        <circle cx="60" cy="196" r="2" fill="#00ffff">
            <animate attributeName="opacity" values="0;1;0" dur="2s" begin="1s" repeatCount="indefinite"/>
        </circle>
        <circle cx="196" cy="196" r="2" fill="#00ffff">
            <animate attributeName="opacity" values="0;1;0" dur="2s" begin="1.5s" repeatCount="indefinite"/>
        </circle>
    </g>
</svg>
